# xmcd CD database file
#
# Track frame offsets:
#	150
#	14753
#	29167
#	38927
#	50735
#	69654
#	82634
#	97192
#	111805
#	125941
#	138178
#	175197
#	207808
#	244676
#	277610
#
# Disc length: 4182 seconds
#
# Revision: 0
# Processed by: cddbd v1.5.1PL2 Copyright (c) Steve Scherf et al.
# Submitted via: CDex 1.51
#
DISCID=d710540f
DTITLE=Various Artist - Sunday Life Country Classic Number 1s
DYEAR=1900
DGENRE=Country
TTITLE0=Rose Garden - Lynn Anderson
TTITLE1=I Love A Rainy Night - Eddie Rabbit
TTITLE2=Ballad Of A Teenage Queen - Johnny Cash
TTITLE3=(Lying Here With) Linda On My Mind - Conway Twitty
TTITLE4=She Believes In Me - Kenny Rogers
TTITLE5=The Fighting Side Of Me - Merle Haggard
TTITLE6=Harper Valley PTA - Jeannie C. Riley
TTITLE7=Darlene - Graham T. Browne
TTITLE8=Dixie Road - Lee Greenwood
TTITLE9=Okie From Muskogee - Merle Haggard
TTITLE10=Moonshine River - Dixie Razors
TTITLE11=Does He - Headwater
TTITLE12=Baby Please Stay - Haisy Daisy
TTITLE13=Half The Man She Thinks I Am - Pete P
TTITLE14=Ami's On The Juice - Yank E Dude
EXTD=
EXTT0=
EXTT1=
EXTT2=
EXTT3=
EXTT4=
EXTT5=
EXTT6=
EXTT7=
EXTT8=
EXTT9=
EXTT10=
EXTT11=
EXTT12=
EXTT13=
EXTT14=
PLAYORDER=
